<?xml version="1.0" standalone="no"?>
<!DOCTYPE svg PUBLIC "-//W3C//DTD SVG 20010904//EN"
 "http://www.w3.org/TR/2001/REC-SVG-20010904/DTD/svg10.dtd">
<svg version="1.0" xmlns="http://www.w3.org/2000/svg"
 width="24.000000pt" height="24.000000pt" viewBox="0 0 24.000000 24.000000"
 preserveAspectRatio="xMidYMid meet">

<g transform="translate(0.000000,24.000000) scale(0.100000,-0.100000)"
fill="#000000" stroke="none">
<path d="M4 229 c-3 -6 15 -33 42 -60 l48 -49 -47 -48 c-26 -26 -47 -53 -47
-60 0 -23 25 -11 72 35 l48 47 48 -47 c26 -26 53 -47 60 -47 23 0 11 25 -35
72 l-47 48 49 50 c38 39 47 52 37 62 -10 10 -23 1 -62 -37 l-50 -49 -48 47
c-51 50 -57 53 -68 36z"/>
</g>
</svg>
